<?xml version="1.0" encoding="UTF-8"?>
<svg version="1.1" xmlns="http://www.w3.org/2000/svg" width="54" height="54">
<path d="M0,0 L48,0 L48,2 L50,2 L50,4 L51,4 L51,21 L49,21 L49,33 L51,33 L51,50 L50,50 L50,52 L48,52 L48,54 L0,54 L0,52 L-2,52 L-2,50 L-3,50 L-3,33 L-1,33 L-1,21 L-3,21 L-3,4 L-2,4 L-2,2 L0,2 Z M1,4 L1,20 L3,20 L3,33 L1,33 L1,47 L3,47 L3,49 L45,49 L45,47 L47,47 L47,33 L45,33 L45,20 L47,20 L47,4 Z " fill="#A47EB4" transform="translate(3,0)"/>
<path d="M0,0 L13,0 L13,2 L22,2 L22,0 L34,0 L34,2 L36,2 L36,13 L34,13 L34,25 L36,25 L36,35 L34,35 L34,37 L0,37 L0,35 L-2,35 L-2,25 L0,25 L0,13 L-2,13 L-2,2 L0,2 Z M2,4 L2,12 L4,12 L4,25 L2,25 L2,33 L32,33 L32,25 L30,25 L30,12 L32,12 L32,4 L22,4 L22,6 L13,6 L13,4 Z " fill="#A47EB4" transform="translate(10,8)"/>
<path d="M0,0 L2,0 L2,1 L3,1 L3,6 L4,6 L4,8 L5,8 L5,12 L6,12 L6,14 L7,14 L7,5 L8,5 L8,0 L9,0 L9,2 L10,2 L10,6 L9,6 L9,14 L10,14 L10,16 L9,16 L9,17 L8,17 L8,18 L6,18 L6,16 L5,16 L5,14 L4,14 L4,12 L3,12 L3,8 L2,8 L2,6 L1,6 L1,4 L0,4 L0,15 L-1,15 L-1,18 L-2,18 L-2,17 L-3,17 L-3,14 L-2,14 L-2,6 L-3,6 L-3,3 L-2,3 L-2,2 L-1,2 L-1,1 L0,1 Z " fill="#A57EB4" transform="translate(24,19)"/>
</svg>
